<?xml version="1.0" ?>
<svg version="1.1" xmlns="http://www.w3.org/2000/svg" width="397px" height="64px">
<!-- Generated by simple FlowDev draw-svg tool. -->
	<rect fill="rgb(255,255,255)" fill-opacity="1" stroke="none" stroke-opacity="1" stroke-width="0.0" width="397" height="64" x="0" y="0"/>
	<line stroke="rgb(0,0,0)" stroke-opacity="1.0" stroke-width="2.5" x1="26" y1="25" x2="128" y2="25"/>
	<line stroke="rgb(0,0,0)" stroke-opacity="1.0" stroke-width="2.5" x1="120" y1="17" x2="128" y2="25"/>
	<line stroke="rgb(0,0,0)" stroke-opacity="1.0" stroke-width="2.5" x1="120" y1="33" x2="128" y2="25"/>

	<line stroke="rgb(0,0,0)" stroke-opacity="1.0" stroke-width="2.5" x1="200" y1="25" x2="242" y2="25"/>
	<line stroke="rgb(0,0,0)" stroke-opacity="1.0" stroke-width="2.5" x1="234" y1="17" x2="242" y2="25"/>
	<line stroke="rgb(0,0,0)" stroke-opacity="1.0" stroke-width="2.5" x1="234" y1="33" x2="242" y2="25"/>

	<line stroke="rgb(0,0,0)" stroke-opacity="1.0" stroke-width="2.5" x1="314" y1="25" x2="356" y2="25"/>
	<line stroke="rgb(0,0,0)" stroke-opacity="1.0" stroke-width="2.5" x1="348" y1="17" x2="356" y2="25"/>
	<line stroke="rgb(0,0,0)" stroke-opacity="1.0" stroke-width="2.5" x1="348" y1="33" x2="356" y2="25"/>

	<rect fill="rgb(96,196,255)" fill-opacity="1.0" stroke="rgb(0,0,0)" stroke-opacity="1.0" stroke-width="2.5" width="72" height="36" x="128" y="7" rx="10" ry="10"/>
	<rect fill="rgb(96,196,255)" fill-opacity="1.0" stroke="rgb(0,0,0)" stroke-opacity="1.0" stroke-width="2.5" width="72" height="36" x="242" y="7" rx="10" ry="10"/>


	<text fill="rgb(0,0,0)" fill-opacity="1.0" font-family="monospace" font-size="16" x="3" y="31" textLength="22" lengthAdjust="spacingAndGlyphs">in</text>
	<text fill="rgb(0,0,0)" fill-opacity="1.0" font-family="monospace" font-size="16" x="41" y="17" textLength="60" lengthAdjust="spacingAndGlyphs">(int)</text>
	<text fill="rgb(0,0,0)" fill-opacity="1.0" font-family="monospace" font-size="16" x="140" y="31" textLength="48" lengthAdjust="spacingAndGlyphs">foo1</text>
	<text fill="rgb(0,0,0)" fill-opacity="1.0" font-family="monospace" font-size="16" x="254" y="31" textLength="48" lengthAdjust="spacingAndGlyphs">foo2</text>
	<text fill="rgb(0,0,0)" fill-opacity="1.0" font-family="monospace" font-size="16" x="359" y="31" textLength="34" lengthAdjust="spacingAndGlyphs">out</text>
</svg>
