<?xml version="1.0" ?>
<svg version="1.1" xmlns="http://www.w3.org/2000/svg" width="571px" height="76px">
<!-- Generated by FlowDev tool. -->
	<rect fill="rgb(255,255,255)" fill-opacity="1" stroke="none" stroke-opacity="1" stroke-width="0.0" width="571" height="76" x="0" y="0"/>
	<line stroke="rgb(0,0,0)" stroke-opacity="1.0" stroke-width="2.5" x1="26" y1="25" x2="152" y2="25"/>
	<line stroke="rgb(0,0,0)" stroke-opacity="1.0" stroke-width="2.5" x1="144" y1="17" x2="152" y2="25"/>
	<line stroke="rgb(0,0,0)" stroke-opacity="1.0" stroke-width="2.5" x1="144" y1="33" x2="152" y2="25"/>

	<line stroke="rgb(0,0,0)" stroke-opacity="1.0" stroke-width="2.5" x1="224" y1="25" x2="266" y2="25"/>
	<line stroke="rgb(0,0,0)" stroke-opacity="1.0" stroke-width="2.5" x1="258" y1="17" x2="266" y2="25"/>
	<line stroke="rgb(0,0,0)" stroke-opacity="1.0" stroke-width="2.5" x1="258" y1="33" x2="266" y2="25"/>

	<line stroke="rgb(0,0,0)" stroke-opacity="1.0" stroke-width="2.5" x1="374" y1="25" x2="416" y2="25"/>
	<line stroke="rgb(0,0,0)" stroke-opacity="1.0" stroke-width="2.5" x1="408" y1="17" x2="416" y2="25"/>
	<line stroke="rgb(0,0,0)" stroke-opacity="1.0" stroke-width="2.5" x1="408" y1="33" x2="416" y2="25"/>

	<line stroke="rgb(0,0,0)" stroke-opacity="1.0" stroke-width="2.5" x1="488" y1="25" x2="530" y2="25"/>
	<line stroke="rgb(0,0,0)" stroke-opacity="1.0" stroke-width="2.5" x1="522" y1="17" x2="530" y2="25"/>
	<line stroke="rgb(0,0,0)" stroke-opacity="1.0" stroke-width="2.5" x1="522" y1="33" x2="530" y2="25"/>

	<rect fill="rgb(96,196,255)" fill-opacity="1.0" stroke="rgb(0,0,0)" stroke-opacity="1.0" stroke-width="2.5" width="72" height="36" x="152" y="7" rx="10" ry="10"/>
	<rect fill="rgb(96,196,255)" fill-opacity="1.0" stroke="rgb(0,0,0)" stroke-opacity="1.0" stroke-width="2.5" width="108" height="60" x="266" y="7" rx="10" ry="10"/>
	<rect fill="rgb(96,196,255)" fill-opacity="1.0" stroke="rgb(0,0,0)" stroke-opacity="1.0" stroke-width="2.5" width="72" height="36" x="416" y="7" rx="10" ry="10"/>


	<text fill="rgb(0,0,0)" fill-opacity="1.0" font-family="monospace" font-size="16" x="3" y="31" textLength="22" lengthAdjust="spacingAndGlyphs">in</text>
	<text fill="rgb(0,0,0)" fill-opacity="1.0" font-family="monospace" font-size="16" x="41" y="17" textLength="84" lengthAdjust="spacingAndGlyphs">(Tint1)</text>
	<text fill="rgb(0,0,0)" fill-opacity="1.0" font-family="monospace" font-size="16" x="164" y="31" textLength="48" lengthAdjust="spacingAndGlyphs">foo1</text>
	<text fill="rgb(0,0,0)" fill-opacity="1.0" font-family="monospace" font-size="16" x="278" y="31" textLength="84" lengthAdjust="spacingAndGlyphs">blaSome</text>
	<text fill="rgb(0,0,0)" fill-opacity="1.0" font-family="monospace" font-size="16" x="278" y="55" textLength="84" lengthAdjust="spacingAndGlyphs">BlaSome</text>
	<text fill="rgb(0,0,0)" fill-opacity="1.0" font-family="monospace" font-size="16" x="428" y="31" textLength="48" lengthAdjust="spacingAndGlyphs">foo2</text>
	<text fill="rgb(0,0,0)" fill-opacity="1.0" font-family="monospace" font-size="16" x="533" y="31" textLength="34" lengthAdjust="spacingAndGlyphs">out</text>
</svg>
