<?xml version="1.0" ?>
<svg version="1.1" xmlns="http://www.w3.org/2000/svg" width="529px" height="76px">
<!-- Generated by FlowDev tool. -->
	<rect fill="rgb(255,255,255)" fill-opacity="1" stroke="none" stroke-opacity="1" stroke-width="0.0" width="529" height="76" x="0" y="0"/>
	<line stroke="rgb(0,0,0)" stroke-opacity="1.0" stroke-width="2.5" x1="26" y1="25" x2="152" y2="25"/>
	<line stroke="rgb(0,0,0)" stroke-opacity="1.0" stroke-width="2.5" x1="144" y1="17" x2="152" y2="25"/>
	<line stroke="rgb(0,0,0)" stroke-opacity="1.0" stroke-width="2.5" x1="144" y1="33" x2="152" y2="25"/>

	<line stroke="rgb(0,0,0)" stroke-opacity="1.0" stroke-width="2.5" x1="224" y1="25" x2="362" y2="25"/>
	<line stroke="rgb(0,0,0)" stroke-opacity="1.0" stroke-width="2.5" x1="354" y1="17" x2="362" y2="25"/>
	<line stroke="rgb(0,0,0)" stroke-opacity="1.0" stroke-width="2.5" x1="354" y1="33" x2="362" y2="25"/>

	<line stroke="rgb(0,0,0)" stroke-opacity="1.0" stroke-width="2.5" x1="446" y1="25" x2="488" y2="25"/>
	<line stroke="rgb(0,0,0)" stroke-opacity="1.0" stroke-width="2.5" x1="480" y1="17" x2="488" y2="25"/>
	<line stroke="rgb(0,0,0)" stroke-opacity="1.0" stroke-width="2.5" x1="480" y1="33" x2="488" y2="25"/>

	<rect fill="rgb(96,196,255)" fill-opacity="1.0" stroke="rgb(0,0,0)" stroke-opacity="1.0" stroke-width="2.5" width="72" height="36" x="152" y="7" rx="10" ry="10"/>
	<rect fill="rgb(96,196,255)" fill-opacity="1.0" stroke="rgb(0,0,0)" stroke-opacity="1.0" stroke-width="2.5" width="84" height="60" x="362" y="7" rx="10" ry="10"/>


	<text fill="rgb(0,0,0)" fill-opacity="1.0" font-family="monospace" font-size="16" x="3" y="31" textLength="22" lengthAdjust="spacingAndGlyphs">in</text>
	<text fill="rgb(0,0,0)" fill-opacity="1.0" font-family="monospace" font-size="16" x="41" y="17" textLength="84" lengthAdjust="spacingAndGlyphs">(Tint1)</text>
	<text fill="rgb(0,0,0)" fill-opacity="1.0" font-family="monospace" font-size="16" x="164" y="31" textLength="48" lengthAdjust="spacingAndGlyphs">foo3</text>
	<text fill="rgb(0,0,0)" fill-opacity="1.0" font-family="monospace" font-size="16" x="239" y="17" textLength="96" lengthAdjust="spacingAndGlyphs">(TBlaer)</text>
	<text fill="rgb(0,0,0)" fill-opacity="1.0" font-family="monospace" font-size="16" x="374" y="31" textLength="60" lengthAdjust="spacingAndGlyphs">doBla</text>
	<text fill="rgb(0,0,0)" fill-opacity="1.0" font-family="monospace" font-size="16" x="374" y="55" textLength="60" lengthAdjust="spacingAndGlyphs">DoBla</text>
	<text fill="rgb(0,0,0)" fill-opacity="1.0" font-family="monospace" font-size="16" x="491" y="31" textLength="34" lengthAdjust="spacingAndGlyphs">out</text>
</svg>
