<?xml version="1.0" ?>
<svg version="1.1" xmlns="http://www.w3.org/2000/svg" width="433px" height="64px">
<!-- Generated by FlowDev tool. -->
	<rect fill="rgb(255,255,255)" fill-opacity="1" stroke="none" stroke-opacity="1" stroke-width="0.0" width="433" height="64" x="0" y="0"/>
	<line stroke="rgb(0,0,0)" stroke-opacity="1.0" stroke-width="2.5" x1="26" y1="25" x2="164" y2="25"/>
	<line stroke="rgb(0,0,0)" stroke-opacity="1.0" stroke-width="2.5" x1="156" y1="17" x2="164" y2="25"/>
	<line stroke="rgb(0,0,0)" stroke-opacity="1.0" stroke-width="2.5" x1="156" y1="33" x2="164" y2="25"/>

	<line stroke="rgb(0,0,0)" stroke-opacity="1.0" stroke-width="2.5" x1="236" y1="25" x2="278" y2="25"/>
	<line stroke="rgb(0,0,0)" stroke-opacity="1.0" stroke-width="2.5" x1="270" y1="17" x2="278" y2="25"/>
	<line stroke="rgb(0,0,0)" stroke-opacity="1.0" stroke-width="2.5" x1="270" y1="33" x2="278" y2="25"/>

	<line stroke="rgb(0,0,0)" stroke-opacity="1.0" stroke-width="2.5" x1="350" y1="25" x2="392" y2="25"/>
	<line stroke="rgb(0,0,0)" stroke-opacity="1.0" stroke-width="2.5" x1="384" y1="17" x2="392" y2="25"/>
	<line stroke="rgb(0,0,0)" stroke-opacity="1.0" stroke-width="2.5" x1="384" y1="33" x2="392" y2="25"/>

	<rect fill="rgb(96,196,255)" fill-opacity="1.0" stroke="rgb(0,0,0)" stroke-opacity="1.0" stroke-width="2.5" width="72" height="36" x="164" y="7" rx="10" ry="10"/>
	<rect fill="rgb(96,196,255)" fill-opacity="1.0" stroke="rgb(0,0,0)" stroke-opacity="1.0" stroke-width="2.5" width="72" height="36" x="278" y="7" rx="10" ry="10"/>


	<text fill="rgb(0,0,0)" fill-opacity="1.0" font-family="monospace" font-size="16" x="3" y="31" textLength="22" lengthAdjust="spacingAndGlyphs">in</text>
	<text fill="rgb(0,0,0)" fill-opacity="1.0" font-family="monospace" font-size="16" x="41" y="17" textLength="96" lengthAdjust="spacingAndGlyphs">(TBlaer)</text>
	<text fill="rgb(0,0,0)" fill-opacity="1.0" font-family="monospace" font-size="16" x="176" y="31" textLength="48" lengthAdjust="spacingAndGlyphs">bar1</text>
	<text fill="rgb(0,0,0)" fill-opacity="1.0" font-family="monospace" font-size="16" x="290" y="31" textLength="48" lengthAdjust="spacingAndGlyphs">bar2</text>
	<text fill="rgb(0,0,0)" fill-opacity="1.0" font-family="monospace" font-size="16" x="395" y="31" textLength="34" lengthAdjust="spacingAndGlyphs">out</text>
</svg>
